<?xml version="1.0" encoding="UTF-8" standalone="no" ?>
<!DOCTYPE svg PUBLIC "-//W3C//DTD SVG 1.1//EN" "http://www.w3.org/Graphics/SVG/1.1/DTD/svg11.dtd">
<svg xmlns="http://www.w3.org/2000/svg" xmlns:xlink="http://www.w3.org/1999/xlink" version="1.1" width="1280" height="1024" viewBox="0 0 1280 1024" xml:space="preserve">
<desc>Created with Fabric.js 5.3.0</desc>
<defs>
</defs>
<g transform="matrix(1 0 0 1 640 512)" id="background-logo"  >
<rect style="stroke: none; stroke-width: 0; stroke-dasharray: none; stroke-linecap: butt; stroke-dashoffset: 0; stroke-linejoin: miter; stroke-miterlimit: 4; fill: rgb(255,255,255); fill-opacity: 0; fill-rule: nonzero; opacity: 1;"  paint-order="stroke"  x="-640" y="-512" rx="0" ry="0" width="1280" height="1024" />
</g>
<g transform="matrix(1.9211538461538462 0 0 1.9211538461538462 640 411.04859101364536)" id="logo-logo"  >
<g style=""  paint-order="stroke"   >
		<g transform="matrix(0.9852420048470403 0 0 0.9852420048470404 0 0)"  >
<g style=""  paint-order="stroke"   >
		<g transform="matrix(1 0 0 1 0 0)"  >
<path style="stroke: none; stroke-width: 1; stroke-dasharray: none; stroke-linecap: butt; stroke-dashoffset: 0; stroke-linejoin: miter; stroke-miterlimit: 4; fill: rgb(238,203,140); fill-rule: nonzero; opacity: 1;"  paint-order="stroke"  transform=" translate(-95, -100)" d="M 190 94 L 95 0 L 0 94 L 6.11 100 L 0 106 L 95 200 L 190 106 L 183.89 100 Z M 2.83 94 L 95 2.8 L 187.17 94 L 182.48 98.64 L 95 12.09 L 7.52 98.6 Z M 181.06 100 L 95 185.12 L 8.94 100 L 95 14.88 Z M 187.17000000000002 106 L 95 197.2 L 2.83 106 L 7.5200000000000005 101.36 L 95 187.91 L 182.48000000000002 101.39999999999999 Z" stroke-linecap="round" />
</g>
</g>
</g>
</g>
</g>
<g transform="matrix(1.9211538461538462 0 0 1.9211538461538462 640.0936562500002 696.3816653790841)" id="text-logo"  >
<g style=""  paint-order="stroke"   >
		<g transform="matrix(1 0 0 1 0 0)" id="text-logo-path-0"  >
<path style="stroke: none; stroke-width: 0; stroke-dasharray: none; stroke-linecap: butt; stroke-dashoffset: 0; stroke-linejoin: miter; stroke-miterlimit: 4; fill: rgb(242,206,142); fill-rule: nonzero; opacity: 1;"  paint-order="stroke"  transform=" translate(-311.63000000000005, 10.59)" d="M 13.1 0.2 C 17.28 0.2 19.03 0 20.67 0 L 20.67 -0.74 L 20.59 -4.09 L 18.99 -4.06 C 18.64 -4.06 18.33 -3.9 18.02 -3.67 L 14.35 -0.62 L 13.1 -0.58 C 10.34 -0.58 8.58 -5.19 8.58 -13.69 C 8.58 -21.88 10.1 -26.71 13.1 -26.71 L 13.57 -26.71 L 17.32 -23.56 C 17.63 -23.32 17.94 -23.2 18.29 -23.2 L 19.89 -23.2 L 19.89 -27.3 C 18.99 -27.3 16.73 -27.5 13.1 -27.5 C 7.06 -27.5 1.56 -22.89 1.56 -13.69 C 1.56 -4.91 6.67 0.2 13.1 0.2 Z M 47.07 0.2 C 50.43 0.2 52.69 -1.01 53.98 -3.24 C 54.44 -1.33 56.08 0 58.23 0 L 62.24 0 L 62.24 -0.2 C 61.35 -0.47 60.88 -0.86 60.88 -1.36 L 60.88 -25.93 C 60.88 -26.44 61.35 -26.83 62.24 -27.11 L 62.24 -27.3 L 52.49 -27.3 L 52.49 -27.11 C 53.39 -26.83 53.86 -26.44 53.86 -25.93 L 53.86 -7.84 C 53.86 -4.21 52.53 -1.75 50.19 -1.75 C 46.6 -1.75 46.45 -4.02 46.45 -7.84 L 46.45 -25.93 C 46.45 -26.44 46.92 -26.83 47.81 -27.11 L 47.81 -27.3 L 38.06 -27.3 L 38.06 -27.11 C 38.96 -26.83 39.43 -26.44 39.43 -25.93 L 39.43 -9.83 C 39.43 -3.86 40.75 0.2 47.07 0.2 Z M 88.37 -0.58 L 85.96 -0.62 L 82.29 -3.71 C 81.98 -3.94 81.67 -4.06 81.31 -4.06 L 79.72 -4.09 L 79.64 -0.74 L 79.64 0 C 81.2 0 85.88 0.2 89.9 0.2 C 93.52 0.2 98.47 -0.97 98.47 -5.73 C 98.47 -12.71 86.7 -17.32 86.7 -22.78 C 86.7 -24.3 87.59 -26.52 89.47 -26.71 L 90.13 -26.68 L 93.87 -23.56 C 94.19 -23.32 94.5 -23.2 94.85 -23.2 L 96.45 -23.2 L 96.45 -27.3 C 95.59 -27.3 91.18 -27.5 88.1 -27.5 C 83.38 -27.5 79.68 -26.05 79.68 -21.61 C 79.68 -15.25 91.57 -9.98 91.57 -4.41 C 91.57 -2.46 89.7 -0.58 88.37 -0.58 Z M 119.18 0 L 128.93 0 L 128.93 -0.2 C 128.04 -0.47 127.57 -0.86 127.57 -1.36 L 127.57 -20.63 C 127.57 -22.66 126.71 -24.49 125.15 -25.78 L 124.25 -26.52 L 128.27 -26.52 L 132.01 -23.56 C 132.33 -23.32 132.64 -23.2 132.99 -23.2 L 134.59 -23.2 L 134.59 -27.3 L 113.92 -27.3 L 113.92 -23.2 L 115.52 -23.2 C 115.87 -23.2 116.18 -23.32 116.49 -23.56 L 120.24 -26.52 L 120.55 -26.52 L 120.55 -1.36 C 120.55 -0.86 120.08 -0.47 119.18 -0.2 Z M 163.14 0.2 C 169.06 0.2 174.64 -4.52 174.64 -13.69 C 174.64 -22.39 169.53 -27.5 163.14 -27.5 C 157.09 -27.5 151.59 -22.89 151.59 -13.69 C 151.59 -4.91 156.7 0.2 163.14 0.2 Z M 158.61 -13.69 C 158.61 -21.88 160.13 -26.71 163.14 -26.71 C 165.87 -26.71 167.62 -22.11 167.62 -13.69 C 167.62 -5.42 166.14 -0.58 163.14 -0.58 C 160.37 -0.58 158.61 -5.19 158.61 -13.69 Z M 160.37 -13.69 C 161.42 -12.91 162.36 -11.97 163.14 -10.92 C 163.92 -11.97 164.85 -12.91 165.91 -13.69 C 164.85 -14.47 163.92 -15.4 163.14 -16.46 C 162.36 -15.4 161.42 -14.47 160.37 -13.69 Z M 199.25 -27.3 L 192.23 -27.3 L 193.4 -24.65 L 193.4 -1.36 C 193.4 -0.86 192.93 -0.47 192.04 -0.2 L 192.04 0 L 195.55 0 L 195.55 -0.2 C 194.65 -0.47 194.18 -0.86 194.18 -1.36 L 194.18 -22.89 L 204.32 0 L 205.1 0 L 214.46 -21.14 L 214.46 -1.36 C 214.46 -0.86 213.99 -0.47 213.1 -0.2 L 213.1 0 L 222.85 0 L 222.85 -0.2 C 221.95 -0.47 221.48 -0.86 221.48 -1.36 L 221.48 -25.93 C 221.48 -26.44 221.95 -26.83 222.85 -27.11 L 222.85 -27.3 L 216.41 -27.3 L 207.83 -7.92 Z M 241.61 -25.93 L 241.61 -1.36 C 241.61 -0.86 241.14 -0.47 240.24 -0.2 L 240.24 0 L 249.99 0 L 249.99 -0.2 C 249.09 -0.47 248.63 -0.86 248.63 -1.36 L 248.63 -25.93 C 248.63 -26.44 249.09 -26.83 249.99 -27.11 L 249.99 -27.3 L 240.24 -27.3 L 240.24 -27.11 C 241.14 -26.83 241.61 -26.44 241.61 -25.93 Z M 267.38 0 L 286.57 0 L 286.57 -4.09 L 284.97 -4.09 C 284.62 -4.09 284.31 -3.98 284 -3.74 L 280.25 -0.78 L 274.75 -0.78 L 286.38 -27.3 L 267.85 -27.3 L 267.85 -23.2 L 269.45 -23.2 C 269.8 -23.2 270.11 -23.32 270.43 -23.56 L 274.17 -26.52 L 278.97 -26.52 Z M 303.97 0 L 322.3 0 L 322.3 -4.09 L 320.7 -4.09 C 320.35 -4.09 320.03 -3.98 319.72 -3.74 L 315.98 -0.78 L 309.04 -0.78 L 309.93 -1.52 C 311.49 -2.81 312.35 -4.64 312.35 -6.67 L 312.35 -12.99 L 313.33 -12.99 C 315.12 -12.99 316.49 -11.54 317.5 -9.67 L 317.69 -9.67 L 317.69 -17.08 L 317.5 -17.08 C 316.49 -15.21 315.12 -13.77 313.33 -13.77 L 312.35 -13.77 L 312.35 -23.67 C 312.58 -25.31 313.99 -26.52 315.78 -26.52 L 315.98 -26.52 L 319.72 -23.56 C 320.03 -23.32 320.35 -23.2 320.7 -23.2 L 322.3 -23.2 L 322.3 -27.3 L 315.78 -27.3 C 314.38 -27.3 313.13 -26.6 312.35 -25.58 L 312.35 -27.3 L 303.97 -27.3 L 303.97 -27.11 C 304.86 -26.83 305.33 -26.44 305.33 -25.93 L 305.33 -1.36 C 305.33 -0.86 304.86 -0.47 303.97 -0.2 Z M 349.75 -0.78 L 348.07 -0.78 L 348.07 -26.52 L 349.75 -26.52 C 353.26 -26.52 355.02 -22.11 355.02 -13.69 C 355.02 -5.42 353.53 -0.78 349.75 -0.78 Z M 339.69 0 L 349.75 0 C 356.46 0 362.04 -4.52 362.04 -13.69 C 362.04 -22.39 356.93 -27.3 349.75 -27.3 L 339.69 -27.3 L 339.69 -27.11 C 340.59 -26.83 341.06 -26.44 341.06 -25.93 L 341.06 -1.36 C 341.06 -0.86 340.59 -0.47 339.69 -0.2 Z M 409.31 5.54 L 409.31 6.32 C 418.39 6.32 422.88 1.29 422.88 -7.29 L 422.88 -25.93 C 422.88 -26.44 423.35 -26.83 424.24 -27.11 L 424.24 -27.3 L 414.49 -27.3 L 414.49 -27.11 C 415.39 -26.83 415.86 -26.44 415.86 -25.93 L 415.86 -1.05 C 415.86 3.35 413.44 5.54 409.31 5.54 Z M 441.64 0 L 459.97 0 L 459.97 -4.09 L 458.37 -4.09 C 458.02 -4.09 457.7 -3.98 457.39 -3.74 L 453.65 -0.78 L 446.71 -0.78 L 447.6 -1.52 C 449.16 -2.81 450.02 -4.64 450.02 -6.67 L 450.02 -12.99 L 451 -12.99 C 452.79 -12.99 454.16 -11.54 455.17 -9.67 L 455.36 -9.67 L 455.36 -17.08 L 455.17 -17.08 C 454.16 -15.21 452.79 -13.77 451 -13.77 L 450.02 -13.77 L 450.02 -23.67 C 450.25 -25.31 451.66 -26.52 453.45 -26.52 L 453.65 -26.52 L 457.39 -23.56 C 457.7 -23.32 458.02 -23.2 458.37 -23.2 L 459.97 -23.2 L 459.97 -27.3 L 453.45 -27.3 C 452.05 -27.3 450.8 -26.6 450.02 -25.58 L 450.02 -27.3 L 441.64 -27.3 L 441.64 -27.11 C 442.53 -26.83 443 -26.44 443 -25.93 L 443 -1.36 C 443 -0.86 442.53 -0.47 441.64 -0.2 Z M 483.99 0 L 492.38 0 L 491.79 -2.42 L 495.69 -18.45 L 499.86 -1.33 C 499.98 -0.82 499.71 -0.47 498.81 -0.2 L 498.81 0 L 507.19 0 L 506.61 -2.42 L 512.34 -25.97 C 512.46 -26.48 513.12 -26.83 514.02 -27.11 L 514.02 -27.3 L 510.51 -27.3 L 510.51 -27.11 C 511.41 -26.83 511.68 -26.48 511.56 -25.97 L 506.22 -4.02 L 500.88 -25.97 C 500.76 -26.48 501.03 -26.83 501.93 -27.11 L 501.93 -27.3 L 492.18 -27.3 L 492.18 -27.11 C 493.08 -26.83 493.74 -26.48 493.86 -25.97 L 495.3 -20.05 L 491.4 -4.02 L 486.06 -25.97 C 485.94 -26.48 486.21 -26.83 487.11 -27.11 L 487.11 -27.3 L 477.36 -27.3 L 477.36 -27.11 C 478.26 -26.83 478.92 -26.48 479.04 -25.97 L 485.04 -1.33 C 485.16 -0.82 484.89 -0.47 483.99 -0.2 Z M 531.41 0 L 549.74 0 L 549.74 -4.09 L 548.15 -4.09 C 547.79 -4.09 547.48 -3.98 547.17 -3.74 L 543.43 -0.78 L 536.48 -0.78 L 537.38 -1.52 C 538.94 -2.81 539.8 -4.64 539.8 -6.67 L 539.8 -12.99 L 540.77 -12.99 C 542.57 -12.99 543.93 -11.54 544.95 -9.67 L 545.14 -9.67 L 545.14 -17.08 L 544.95 -17.08 C 543.93 -15.21 542.57 -13.77 540.77 -13.77 L 539.8 -13.77 L 539.8 -23.67 C 540.03 -25.31 541.44 -26.52 543.23 -26.52 L 543.43 -26.52 L 547.17 -23.56 C 547.48 -23.32 547.79 -23.2 548.15 -23.2 L 549.74 -23.2 L 549.74 -27.3 L 543.23 -27.3 C 541.83 -27.3 540.58 -26.6 539.8 -25.58 L 539.8 -27.3 L 531.41 -27.3 L 531.41 -27.11 C 532.31 -26.83 532.78 -26.44 532.78 -25.93 L 532.78 -1.36 C 532.78 -0.86 532.31 -0.47 531.41 -0.2 Z M 567.14 0 L 585.47 0 L 585.47 -4.09 L 583.87 -4.09 C 583.52 -4.09 583.21 -3.98 582.89 -3.74 L 579.15 -0.78 L 572.21 -0.78 L 573.11 -1.52 C 574.67 -2.81 575.52 -4.64 575.52 -6.67 L 575.52 -25.93 C 575.52 -26.44 575.99 -26.83 576.89 -27.11 L 576.89 -27.3 L 567.14 -27.3 L 567.14 -27.11 C 568.04 -26.83 568.5 -26.44 568.5 -25.93 L 568.5 -1.36 C 568.5 -0.86 568.04 -0.47 567.14 -0.2 Z M 611.6 -0.58 L 609.18 -0.62 L 605.51 -3.71 C 605.2 -3.94 604.89 -4.06 604.54 -4.06 L 602.94 -4.09 L 602.86 -0.74 L 602.86 0 C 604.42 0 609.1 0.2 613.12 0.2 C 616.75 0.2 621.7 -0.97 621.7 -5.73 C 621.7 -12.71 609.92 -17.32 609.92 -22.78 C 609.92 -24.3 610.82 -26.52 612.69 -26.71 L 613.35 -26.68 L 617.1 -23.56 C 617.41 -23.32 617.72 -23.2 618.07 -23.2 L 619.67 -23.2 L 619.67 -27.3 C 618.81 -27.3 614.41 -27.5 611.33 -27.5 C 606.61 -27.5 602.9 -26.05 602.9 -21.61 C 602.9 -15.25 614.8 -9.98 614.8 -4.41 C 614.8 -2.46 612.92 -0.58 611.6 -0.58 Z" stroke-linecap="round" />
</g>
</g>
</g>
<g transform="matrix(1.9211538461538462 0 0 1.9211538461538462 639.9999999999999 405.1927219751839)" id="tagline-1e6586f8-d0fe-40a7-88e9-d3bbc2eb41fd-logo"  >
<g style=""  paint-order="stroke"   >
		<g transform="matrix(1 0 0 1 0 0)" id="tagline-1e6586f8-d0fe-40a7-88e9-d3bbc2eb41fd-logo-path-0"  >
<path style="stroke: none; stroke-width: 0; stroke-dasharray: none; stroke-linecap: butt; stroke-dashoffset: 0; stroke-linejoin: miter; stroke-miterlimit: 4; fill: rgb(238,203,140); fill-rule: nonzero; opacity: 1;"  paint-order="stroke"  transform=" translate(-24.224999999999998, 29.75)" d="M 28.56 0.43 C 37.66 0.43 41.48 0 45.05 0 L 45.05 -1.62 L 44.88 -8.93 L 41.4 -8.84 C 40.63 -8.84 39.95 -8.5 39.27 -7.99 L 31.28 -1.36 L 28.56 -1.28 C 22.53 -1.28 18.7 -11.31 18.7 -29.84 C 18.7 -47.69 22.02 -58.23 28.56 -58.23 L 29.58 -58.23 L 37.74 -51.34 C 38.42 -50.83 39.1 -50.58 39.87 -50.58 L 43.35 -50.58 L 43.35 -59.5 C 41.4 -59.5 36.47 -59.93 28.56 -59.93 C 15.39 -59.93 3.4 -49.9 3.4 -29.84 C 3.4 -10.71 14.54 0.43 28.56 0.43 Z" stroke-linecap="round" />
</g>
</g>
</g>
</svg>